<?xml version="1.0" encoding="UTF-8" standalone="no"?>
<!DOCTYPE svg PUBLIC "-//W3C//DTD SVG 1.1//EN" "http://www.w3.org/Graphics/SVG/1.1/DTD/svg11.dtd">
<svg width="100%" height="100%" viewBox="0 0 1024 682" version="1.1" xmlns="http://www.w3.org/2000/svg" xmlns:xlink="http://www.w3.org/1999/xlink" xml:space="preserve" xmlns:serif="http://www.serif.com/" style="fill-rule:evenodd;clip-rule:evenodd;stroke-linejoin:round;stroke-miterlimit:2;">
    <g transform="matrix(2.648981,0,0,2.648981,108.804296,-564.775151)">
        <g transform="matrix(1.426165,0,0,1.426165,-189.379249,-121.831006)">
            <path d="M197.49,246.396C198.831,246.389 200.171,246.383 201.512,246.376C206.015,246.815 205.926,246.652 210.493,246.381L212.506,246.387C214.172,246.38 215.839,246.373 217.505,246.366L220.494,246.363C222.498,246.359 224.503,246.354 226.508,246.349L233.492,246.34L236.508,246.359L241.492,246.341L244.508,246.353L248.509,246.336L252.492,246.335L257.509,246.342L258.491,246.349L261.507,246.34C268.501,246.328 275.495,246.316 282.489,246.304L286.522,246.334C291.239,246.951 291.874,247.446 292.395,247.847C292.562,247.906 294.478,248.588 294.478,248.588C295.688,248.714 295.71,248.461 296.655,249.218C301.629,251.845 301.106,252.639 306.426,254.596C306.821,255.177 307.216,255.758 307.611,256.34C308.559,258.242 308.984,257.841 310.244,259.621C319.746,270.174 317.716,287.303 317.71,312.5C317.695,373.895 318.829,374.494 312.161,388.379C311.084,389.224 311.129,389.145 310.318,390.248C309.148,391.922 303.94,399.371 288.513,403.535C287.684,403.759 277.49,403.628 275.506,403.616C274.169,403.614 272.832,403.613 271.494,403.612L270.503,403.603C268.501,403.6 266.498,403.596 264.496,403.593L263.502,403.588C262.167,403.573 260.833,403.558 259.498,403.543C256.138,403.517 256.206,403.596 217.5,403.499C203.947,403.528 204.059,403.504 190.502,403.468C188.514,402.691 188.622,402.69 186.54,402.426C182.31,401.266 182.612,400.778 178.574,399.293C177.361,397.778 177.374,397.797 175.534,397.468C171.341,393.012 171.196,393.281 167.451,388.544C166.617,387.314 166.67,387.389 165.659,386.44C159.918,376.549 163.217,360.327 161.485,332.503C161.466,331.501 161.448,330.499 161.429,329.497C161.432,324.237 161.602,319.97 161.428,295.503L161.469,292.499C161.478,280.284 159.492,254.235 191.376,247.005C194.494,246.576 194.38,246.798 197.49,246.396Z" style="fill:rgb(59,127,251);fill-opacity:0.99;"/>
        </g>
        <g transform="matrix(1.426165,0,0,1.426165,-189.379249,-121.831006)">
            <path d="M240.496,325.83C230.437,325.341 230.141,323.846 221.172,306.679C217.787,300.199 218.994,320.214 218.899,334.507C218.826,345.438 200.624,340.941 199.34,338.597C197.221,334.73 197.327,334.485 198.243,283.492C198.414,273.977 210.488,275.989 220.529,276.243C225.672,276.373 224.383,278.763 237.44,302.543C240.142,307.463 240.722,301.751 253.833,278.707C256.014,274.875 276.2,274.715 279.286,278.644C282.097,282.222 280.924,282.8 280.663,335.503C280.656,336.944 280.627,342.797 263.445,340.805C255.693,339.906 262.769,303.187 258.537,305.577C253.757,308.277 254.376,324.837 240.496,325.83Z" style="fill:rgb(251,253,254);fill-opacity:0.99;"/>
        </g>
        <g transform="matrix(1.426165,0,0,1.426165,-189.379249,-121.831006)">
            <path d="M213.106,352.452C214.474,344.626 216.886,345.983 223.51,346.115C232.506,346.295 225.351,360.675 235.519,361.117C245.704,361.559 248.063,362.339 250.726,352.564C251.021,351.483 254.191,339.844 263.413,346.643C264.139,347.179 264.71,347.6 266.306,357.555C267.203,365.573 267.255,365.451 268.65,373.483C268.655,373.555 271.009,381.436 265.432,383.223C263.719,383.772 263.668,383.654 218.503,383.657C217.217,382.823 217.89,382.307 216.5,381.406C215.816,380.962 215.834,381.863 215.176,381.5C213.755,380.717 217.594,356.382 216.578,351.464C216.519,351.182 216.158,349.436 213.106,352.452Z" style="fill:rgb(233,244,254);fill-opacity:0.99;"/>
        </g>
        <g transform="matrix(1.426165,0,0,1.426165,-189.379249,-121.831006)">
            <path d="M309.145,330.16C313.957,332.889 310.503,336.035 311.807,347.448C312.131,350.275 312.039,350.219 310.751,352.646C300.411,357.422 295.542,363.872 270.752,370.956C270.499,371.028 270.596,371.143 268.65,373.483C267.255,365.451 267.203,365.573 266.306,357.555C266.751,356.879 265.955,356.4 267.5,355.742C271.098,354.212 292.905,344.934 309.145,330.16Z" style="fill:rgb(44,184,254);fill-opacity:0.99;"/>
        </g>
        <g transform="matrix(1.426165,0,0,1.426165,-189.379249,-121.831006)">
            <path d="M250.064,340.579C250.05,341.985 249.994,347.57 242.39,356.395C237.415,362.17 226.907,344.133 230.319,338.4C233.611,332.868 245.133,327.447 250.064,340.579Z" style="fill:rgb(40,195,254);fill-opacity:1;"/>
        </g>
        <g transform="matrix(1.426165,0,0,1.426165,-189.379249,-121.831006)">
            <path d="M313.657,324.7C315.563,325.649 314.654,326.362 314.879,363.492C315.068,394.707 295.04,397.517 284.498,399.849C282.574,398.6 282.524,398.669 282.42,398.5C282.269,398.253 282.229,397.873 285.672,396.9C287.417,396.407 299.728,392.927 305.057,385.174C311.696,375.518 312.375,369.835 310.751,352.646C312.039,350.219 312.131,350.275 311.807,347.448C310.503,336.035 313.957,332.889 309.145,330.16C311.474,327.465 311.623,327.7 313.657,324.7Z" style="fill:rgb(88,222,254);fill-opacity:0.99;"/>
        </g>
        <g transform="matrix(1.426165,0,0,1.426165,-189.379249,-121.831006)">
            <path d="M213.106,352.452C216.158,349.436 216.519,351.182 216.578,351.464C217.594,356.382 213.755,380.717 215.176,381.5C215.834,381.863 215.816,380.962 216.5,381.406C217.89,382.307 217.217,382.823 218.503,383.657C207.464,383.298 209.36,378.507 211.855,361.569C213.093,353.17 212.998,353.181 213.106,352.452Z" style="fill:rgb(216,231,254);fill-opacity:0.99;"/>
        </g>
        <g transform="matrix(1.426165,0,0,1.426165,-189.379249,-121.831006)">
            <path d="M244.096,342.522C242.021,353.676 231.758,344.754 236.638,339.633C241.686,334.335 243.916,341.908 244.096,342.522Z" style="fill:rgb(50,111,255);fill-opacity:1;"/>
        </g>
        <g transform="matrix(1.426165,0,0,1.426165,-189.379249,-121.831006)">
            <path d="M307.611,256.34C310.247,256.457 310.367,257.006 310.244,259.621C308.984,257.841 308.559,258.242 307.611,256.34Z" style="fill:rgb(85,163,234);fill-opacity:0.05;"/>
        </g>
        <g transform="matrix(1.426165,0,0,1.426165,-189.379249,-121.831006)">
            <path d="M175.534,397.468C177.374,397.797 177.361,397.778 178.574,399.293C176.436,399.279 175.757,399.71 175.534,397.468Z" style="fill:rgb(29,33,203);fill-opacity:0.05;"/>
        </g>
        <g transform="matrix(1.426165,0,0,1.426165,-189.379249,-121.831006)">
            <path d="M312.161,388.379C312.275,390.247 313.414,391.688 311.679,390.941C311.212,390.739 310.786,390.449 310.318,390.248C311.129,389.145 311.084,389.224 312.161,388.379Z" style="fill:rgb(26,180,212);fill-opacity:0.05;"/>
        </g>
        <g transform="matrix(1.426165,0,0,1.426165,-189.379249,-121.831006)">
            <path d="M186.54,402.426C188.622,402.69 188.514,402.691 190.502,403.468C188.252,404.097 188.331,403.697 186.54,402.426Z" style="fill:rgb(72,95,175);fill-opacity:0.19;"/>
        </g>
        <g transform="matrix(1.426165,0,0,1.426165,-189.379249,-121.831006)">
            <path d="M264.496,403.593C266.498,403.596 268.501,403.6 270.503,403.603C267.464,404.013 267.497,404.392 264.496,403.593Z" style="fill:rgb(28,95,169);fill-opacity:0.29;"/>
        </g>
        <g transform="matrix(1.426165,0,0,1.426165,-189.379249,-121.831006)">
            <path d="M165.659,386.44C166.67,387.389 166.617,387.314 167.451,388.544C164.823,387.848 165.728,387.04 165.659,386.44Z" style="fill:rgb(41,59,174);fill-opacity:0.18;"/>
        </g>
        <g transform="matrix(1.426165,0,0,1.426165,-189.379249,-121.831006)">
            <path d="M259.498,403.543C260.833,403.558 262.167,403.573 263.502,403.588C261.445,404.199 261.459,404.207 259.498,403.543Z" style="fill:rgb(18,64,198);fill-opacity:0.27;"/>
        </g>
        <g transform="matrix(1.426165,0,0,1.426165,-189.379249,-121.831006)">
            <path d="M271.494,403.612C272.832,403.613 274.169,403.614 275.506,403.616C273.444,403.981 273.506,403.97 271.494,403.612Z" style="fill:rgb(54,102,170);fill-opacity:0.28;"/>
        </g>
        <g transform="matrix(1.426165,0,0,1.426165,-189.379249,-121.831006)">
            <path d="M161.429,329.497C161.448,330.499 161.466,331.501 161.485,332.503C161.044,330.977 161.009,331.036 161.429,329.497Z" style="fill:rgb(107,111,163);fill-opacity:0.13;"/>
        </g>
        <g transform="matrix(1.426165,0,0,1.426165,-189.379249,-121.831006)">
            <path d="M306.426,254.596C306.821,255.177 307.216,255.758 307.611,256.34C307.216,255.758 306.821,255.177 306.426,254.596Z" style="fill:rgb(47,82,121);fill-opacity:0.13;"/>
        </g>
        <g transform="matrix(1.426165,0,0,1.426165,-189.379249,-121.831006)">
            <path d="M161.469,292.499L161.428,295.503C161.093,293.958 161.092,294.028 161.469,292.499Z" style="fill:rgb(59,86,159);fill-opacity:0.16;"/>
        </g>
    </g>
    <g transform="matrix(1.426165,0,0,1.426165,-189.379249,-121.831006)">
        <path d="M202.599,245.855C205.813,244.258 205.862,245.154 210.493,246.381C205.926,246.652 206.015,246.815 201.512,246.376L202.599,245.855Z" style="fill:rgb(36,112,198);fill-opacity:0.17;"/>
    </g>
    <g transform="matrix(1.426165,0,0,1.426165,-189.379249,-121.831006)">
        <path d="M196.416,245.877L197.49,246.396C194.38,246.798 194.494,246.576 191.376,247.005C192.961,244.495 193.507,245.216 196.416,245.877Z" style="fill:rgb(60,113,199);fill-opacity:0.12;"/>
    </g>
    <g transform="matrix(1.426165,0,0,1.426165,-189.379249,-121.831006)">
        <path d="M196.416,245.877C196.876,245.696 199.484,244.676 202.599,245.855L201.512,246.376C200.171,246.383 198.831,246.389 197.49,246.396L196.416,245.877Z" style="fill:rgb(16,139,193);fill-opacity:0.13;"/>
    </g>
    <g transform="matrix(1.426165,0,0,1.426165,-189.379249,-121.831006)">
        <path d="M292.395,247.847C297.07,246.335 296.343,248.672 296.655,249.218C295.71,248.461 295.688,248.714 294.478,248.588C294.478,248.588 292.562,247.906 292.395,247.847Z" style="fill:rgb(107,135,180);fill-opacity:0.11;"/>
    </g>
    <g transform="matrix(1.426165,0,0,1.426165,-189.379249,-121.831006)">
        <path d="M220.494,246.363C223.568,245.859 223.548,245.419 226.508,246.349C224.503,246.354 222.498,246.359 220.494,246.363Z" style="fill:rgb(52,86,174);fill-opacity:0.25;"/>
    </g>
    <g transform="matrix(1.426165,0,0,1.426165,-189.379249,-121.831006)">
        <path d="M212.506,246.387C215.023,245.692 214.971,245.656 217.505,246.366C215.839,246.373 214.172,246.38 212.506,246.387Z" style="fill:rgb(23,84,187);fill-opacity:0.22;"/>
    </g>
    <g transform="matrix(1.426165,0,0,1.426165,-189.379249,-121.831006)">
        <path d="M252.492,246.335C255.111,245.864 255.018,245.667 257.509,246.342L252.492,246.335Z" style="fill:rgb(39,98,186);fill-opacity:0.25;"/>
    </g>
    <g transform="matrix(1.426165,0,0,1.426165,-189.379249,-121.831006)">
        <path d="M282.489,246.304C284.536,245.707 284.515,245.723 286.522,246.334L282.489,246.304Z" style="fill:rgb(66,109,180);fill-opacity:0.21;"/>
    </g>
    <g transform="matrix(1.426165,0,0,1.426165,-189.379249,-121.831006)">
        <path d="M245.573,245.918L244.508,246.353L241.492,246.341C242.853,246.2 244.213,246.059 245.573,245.918Z" style="fill:rgb(60,98,169);fill-opacity:0.25;"/>
    </g>
    <g transform="matrix(1.426165,0,0,1.426165,-189.379249,-121.831006)">
        <path d="M245.573,245.918C247.153,245.861 247.043,245.957 248.509,246.336L244.508,246.353L245.573,245.918Z" style="fill:rgb(56,97,176);fill-opacity:0.26;"/>
    </g>
    <g transform="matrix(1.426165,0,0,1.426165,-189.379249,-121.831006)">
        <path d="M220.5,250.428C219.398,250.781 219.487,250.999 218.311,250.5L220.5,250.428Z" style="fill:rgb(78,142,254);fill-opacity:0.99;"/>
    </g>
    <g transform="matrix(1.426165,0,0,1.426165,-189.379249,-121.831006)">
        <path d="M233.492,246.34C235.064,246.009 235.002,246.012 236.508,246.359L233.492,246.34Z" style="fill:rgb(27,110,196);fill-opacity:0.27;"/>
    </g>
    <g transform="matrix(1.426165,0,0,1.426165,-189.379249,-121.831006)">
        <path d="M258.491,246.349C260.007,246.007 259.944,246.006 261.507,246.34L258.491,246.349Z" style="fill:rgb(28,115,194);fill-opacity:0.27;"/>
    </g>
    <g transform="matrix(1.426165,0,0,1.426165,-189.379249,-121.831006)">
        <path d="M278.392,252.715C277.27,251.671 275.602,250.957 277.085,251.5C277.973,251.825 277.455,252.372 278.392,252.715Z" style="fill:rgb(100,159,255);fill-opacity:0.99;"/>
    </g>
</svg>
